<svg xmlns="http://www.w3.org/2000/svg" width="170.368" height="70.285" viewBox="0 0 170.368 70.285">
  <g id="Grupo_1725" data-name="Grupo 1725" transform="translate(-1088 -1612.566)">
    <g id="Grupo_1725-2" data-name="Grupo 1725" transform="translate(1088.462 1612.566)">
      <path id="Trazado_1638" data-name="Trazado 1638" d="M1118.235,1619.182a14.806,14.806,0,0,0-2.649-1.185,14.369,14.369,0,0,1-2.349-1.03c-.664-.407-.973-.823-.973-1.307a2.106,2.106,0,0,1,.892-1.664,3.8,3.8,0,0,1,4.4,0,2.106,2.106,0,0,1,.892,1.664v.365h.73v-.365a2.817,2.817,0,0,0-1.122-2.191,4.489,4.489,0,0,0-5.4,0,2.818,2.818,0,0,0-1.122,2.193,2.3,2.3,0,0,0,1.289,1.911,14.732,14.732,0,0,0,2.622,1.169,14.222,14.222,0,0,1,2.366,1.038c.671.414.984.839.984,1.339a2.061,2.061,0,0,1-1.008,1.646,4.519,4.519,0,0,1-4.88.006,2.055,2.055,0,0,1-.99-1.652v-.365h-.729v.365a2.414,2.414,0,0,0,.33,1.207,3.229,3.229,0,0,0,.892.983,5.214,5.214,0,0,0,5.876-.006,2.789,2.789,0,0,0,1.24-2.183A2.3,2.3,0,0,0,1118.235,1619.182Z" transform="translate(-1111.187 -1612.566)" fill="#002f40"/>
      <path id="Trazado_1639" data-name="Trazado 1639" d="M1597.563,1612.566c-2.846,0-5.161,2.612-5.161,5.823s2.315,5.823,5.161,5.823a4.855,4.855,0,0,0,3.654-1.707,6.373,6.373,0,0,0,0-8.233A4.855,4.855,0,0,0,1597.563,1612.566Zm0,10.916c-2.444,0-4.432-2.285-4.432-5.093s1.988-5.093,4.432-5.093,4.432,2.285,4.432,5.093S1600.007,1623.482,1597.563,1623.482Z" transform="translate(-1582.809 -1612.566)" fill="#002f40"/>
      <path id="Trazado_1640" data-name="Trazado 1640" d="M2222.953,1612.931v11.281h.729v-5.458h4.8v-.729h-4.8V1613.3h6.616v-.73h-6.981A.357.357,0,0,0,2222.953,1612.931Z" transform="translate(-2200.79 -1612.566)" fill="#002f40"/>
      <path id="Trazado_1641" data-name="Trazado 1641" d="M2604.6,1613.3h4.152v10.917h.729V1613.3h4.118v-.729h-9Z" transform="translate(-2574.831 -1612.566)" fill="#002f40"/>
      <path id="Trazado_1642" data-name="Trazado 1642" d="M3078.737,1612.852l-2.122,9.711-3.634-9.752a.353.353,0,0,0-.335-.229h0a.353.353,0,0,0-.335.229l-3.634,9.752-2.121-9.708-.072-.289h-.722l.072.436,2.383,10.922a.366.366,0,0,0,.7.04l3.732-9.984,3.732,9.984a.353.353,0,0,0,.339.236h.02a.357.357,0,0,0,.337-.277l2.382-10.917.073-.44h-.722Z" transform="translate(-3026.796 -1612.566)" fill="#002f40"/>
      <path id="Trazado_1643" data-name="Trazado 1643" d="M3762.524,1613.4a.369.369,0,0,0-.663,0l-4.8,10.918-.218.509h.81l.076-.227,4.461-10.146,4.462,10.146.076.227h.81l-.219-.511Z" transform="translate(-3704.103 -1613.176)" fill="#002f40"/>
      <path id="Trazado_1644" data-name="Trazado 1644" d="M4369.17,1618.644a3.576,3.576,0,0,0,1.684-.932,2.88,2.88,0,0,0,.87-2.035,3.321,3.321,0,0,0-3.492-3.11l-4.8.017a.357.357,0,0,0-.365.364l-.008,5.428-.019.342.018,0-.008,5.128v.365h.729v-5.458h4.337c1.021.7,1.737,1.445,2.882,5.2l0,.01.105.246h.749l-.146-.474C4370.738,1620.6,4370.049,1619.424,4369.17,1618.644Zm-2.134-.615-3.252.011V1613.3h4.449a2.392,2.392,0,1,1,.016,4.729h-1.219Z" transform="translate(-4298.218 -1612.566)" fill="#002f40"/>
      <path id="Trazado_1645" data-name="Trazado 1645" d="M4911.116,1612.931v10.916a.357.357,0,0,0,.365.365h7.973v-.729h-7.608v-4.729h5.574v-.729h-5.574V1613.3h7.608v-.73h-7.973A.357.357,0,0,0,4911.116,1612.931Z" transform="translate(-4835.363 -1612.566)" fill="#002f40"/>
      <path id="Trazado_1646" data-name="Trazado 1646" d="M5758.068,1621.363l0,.006a4.575,4.575,0,0,1-3.795,2.113c-2.453,0-4.448-2.285-4.448-5.093s2-5.093,4.448-5.093a4.464,4.464,0,0,1,3.759,2.124l.115.192h.79l-.249-.532,0-.006a4.5,4.5,0,0,0-1.74-1.746,5.342,5.342,0,0,0-2.672-.762,4.878,4.878,0,0,0-3.668,1.707,6.367,6.367,0,0,0,0,8.233,4.878,4.878,0,0,0,3.668,1.706,5.257,5.257,0,0,0,2.67-.766,4.965,4.965,0,0,0,1.771-1.716l.292-.547h-.826Z" transform="translate(-5656.633 -1612.566)" fill="#002f40"/>
      <path id="Trazado_1647" data-name="Trazado 1647" d="M6301.848,1612.566c-2.846,0-5.162,2.612-5.162,5.823s2.315,5.823,5.162,5.823a4.854,4.854,0,0,0,3.653-1.707,6.373,6.373,0,0,0,0-8.233A4.854,4.854,0,0,0,6301.848,1612.566Zm0,10.916c-2.444,0-4.432-2.285-4.432-5.093s1.988-5.093,4.432-5.093,4.432,2.285,4.432,5.093S6304.291,1623.482,6301.848,1623.482Z" transform="translate(-6193.311 -1612.566)" fill="#002f40"/>
      <path id="Trazado_1648" data-name="Trazado 1648" d="M6937.582,1613.1a.357.357,0,0,0-.406.2l-4.615,10.186-4.631-10.184a.366.366,0,0,0-.7.147v11.281h.729v-9.6l4.267,9.383a.369.369,0,0,0,.662,0l4.251-9.383.015,9.236v.365h.729v-.365l-.017-10.916A.356.356,0,0,0,6937.582,1613.1Z" transform="translate(-6811.289 -1613.081)" fill="#002f40"/>
      <path id="Trazado_1649" data-name="Trazado 1649" d="M7612.287,1612.566l-4.813.017a.357.357,0,0,0-.365.364l-.008,5.428-.018.342.018,0-.008,5.128v.365h.729v-5.458h4.465a3.115,3.115,0,1,0,0-6.188Zm-4.465.73h4.465a2.391,2.391,0,1,1,0,4.729l-4.465.015Z" transform="translate(-7477.584 -1612.566)" fill="#002f40"/>
      <path id="Trazado_1650" data-name="Trazado 1650" d="M8068.563,1613.4a.369.369,0,0,0-.664,0l-4.8,10.918-.218.509h.81l.076-.227,4.461-10.146,4.461,10.146.076.227h.81l-.219-.511Z" transform="translate(-7924.299 -1613.176)" fill="#002f40"/>
      <path id="Trazado_1651" data-name="Trazado 1651" d="M8677.508,1612.931l-.016,9.791-7.265-10.006a.356.356,0,0,0-.4-.124.36.36,0,0,0-.257.339v11.281h.729v-10.154l7.264,10a.356.356,0,0,0,.4.124.36.36,0,0,0,.257-.339l.017-10.917v-.365h-.729Z" transform="translate(-8518.889 -1612.566)" fill="#002f40"/>
      <path id="Trazado_1652" data-name="Trazado 1652" d="M9191.875,1612.566l-.112.151-3.312,5.015-3.373-5.012-.115-.154h-.875l.4.576,3.6,5.358v5.712h.729V1618.5l3.538-5.357.4-.575Z" transform="translate(-9023.151 -1612.566)" fill="#002f40"/>
    </g>
    <rect id="Rect치ngulo_730" data-name="Rect치ngulo 730" width="170.368" height="0.14" transform="translate(1088 1626.89)" fill="#002d3c"/>
    <g id="Grupo_1726" data-name="Grupo 1726" transform="translate(1088 1635.914)">
      <path id="Trazado_1653" data-name="Trazado 1653" d="M1122.773,2819.415a17.409,17.409,0,0,1-5.173,3.313,16.218,16.218,0,0,1-6.271,1.2,15.945,15.945,0,0,1-6.463-1.321,16.912,16.912,0,0,1-8.883-8.923,16.247,16.247,0,0,1-1.324-6.513,15.943,15.943,0,0,1,1.322-6.463,17.843,17.843,0,0,1,3.6-5.345,16.9,16.9,0,0,1,5.284-3.628,15.94,15.94,0,0,1,6.463-1.322,16.156,16.156,0,0,1,6.552,1.322,17.617,17.617,0,0,1,5.38,3.681l1.028,1.027,4.547-4.851-.965-.964a23.644,23.644,0,0,0-7.52-5.061,22.99,22.99,0,0,0-9.021-1.814,22.512,22.512,0,0,0-9.033,1.864,23.542,23.542,0,0,0-7.428,5.062,24.45,24.45,0,0,0-5,7.457,22.931,22.931,0,0,0,0,18.115,24.6,24.6,0,0,0,5,7.409,23.533,23.533,0,0,0,7.428,5.063,22.5,22.5,0,0,0,9.033,1.863,23.464,23.464,0,0,0,9.009-1.766,22.4,22.4,0,0,0,7.546-5.123l1.137-1.169-5.4-3.9Z" transform="translate(-1088 -2783.754)" fill="#0084c1"/>
      <path id="Trazado_1654" data-name="Trazado 1654" d="M2985.384,2802.5a23.851,23.851,0,0,0-12.521-12.52,22.928,22.928,0,0,0-18.115,0,23.975,23.975,0,0,0-12.471,12.518,22.716,22.716,0,0,0,0,18.017,24.311,24.311,0,0,0,12.462,12.693,20.042,20.042,0,0,0,8.3,1.755q.394,0,.792-.015a20.213,20.213,0,0,0,9.045-1.738,24.178,24.178,0,0,0,12.511-12.7,22.715,22.715,0,0,0,0-18.018Zm-21.553-7.725a15.94,15.94,0,0,1,6.463,1.322,17.856,17.856,0,0,1,5.345,3.6,16.767,16.767,0,0,1,3.625,5.32,16.677,16.677,0,0,1,0,13.028,16.742,16.742,0,0,1-3.626,5.321,17.83,17.83,0,0,1-5.344,3.6,15.937,15.937,0,0,1-6.463,1.322,16.244,16.244,0,0,1-6.513-1.325,16.792,16.792,0,0,1-8.92-8.92,16.672,16.672,0,0,1,0-13.027,16.792,16.792,0,0,1,8.92-8.92A16.245,16.245,0,0,1,2963.83,2794.78Z" transform="translate(-2903.484 -2788.034)" fill="#0084c1"/>
      <path id="Trazado_1655" data-name="Trazado 1655" d="M7573.15,2799.176h11.559v39.63h8.1v-39.63h11.558v-7.116H7573.15Z" transform="translate(-7443.866 -2791.894)" fill="#002f40"/>
      <rect id="Rect치ngulo_731" data-name="Rect치ngulo 731" width="7.996" height="46.747" transform="translate(162.201 0.166)" fill="#002f40"/>
      <path id="Trazado_1656" data-name="Trazado 1656" d="M5176.971,2795.837l-.224-1.136h-6.71l.328,1.678a5.882,5.882,0,0,1,.061,1.04,16.343,16.343,0,0,1-1.245,6.355,16.934,16.934,0,0,1-3.427,5.244,17.115,17.115,0,0,1-5.126,3.631,15.673,15.673,0,0,1-6.278,1.44h-1.365a20.356,20.356,0,0,0-8.9,2.049,22.5,22.5,0,0,0-5.712,3.626,23.551,23.551,0,0,0-4.366,5.063,24.182,24.182,0,0,0-2.782,6.074,22.994,22.994,0,0,0-.977,6.605c0,.4.017.8.048,1.2.031.417.081.827.146,1.219l.192,1.148,6.67.151-.237-1.646c-.054-.375-.095-.728-.122-1.056-.025-.3-.038-.631-.038-1.014a16.342,16.342,0,0,1,1.244-6.355,17.485,17.485,0,0,1,3.436-5.3,16.146,16.146,0,0,1,5.1-3.616,17.34,17.34,0,0,1,6.311-1.491h1.363l.455-.036a22.29,22.29,0,0,0,8.463-1.991l.034-.015a21.791,21.791,0,0,0,5.695-3.642,24.757,24.757,0,0,0,4.307-5,23.432,23.432,0,0,0,2.787-6.04,22.952,22.952,0,0,0,.977-6.605A8.566,8.566,0,0,0,5176.971,2795.837Z" transform="translate(-5049.666 -2794.483)" fill="#002f40"/>
      <path id="Trazado_1657" data-name="Trazado 1657" d="M5130.364,2795.837l.224-1.136h6.71l-.328,1.678a5.882,5.882,0,0,0-.061,1.04,16.36,16.36,0,0,0,1.244,6.355,16.794,16.794,0,0,0,8.554,8.875,15.677,15.677,0,0,0,6.278,1.44h1.364a20.356,20.356,0,0,1,8.9,2.049,22.491,22.491,0,0,1,5.712,3.626,23.565,23.565,0,0,1,4.366,5.063,24.147,24.147,0,0,1,2.782,6.074,22.96,22.96,0,0,1,.977,6.605c0,.4-.016.8-.047,1.2-.031.417-.081.827-.146,1.219l-.192,1.148-6.67.151.238-1.646c.054-.375.095-.728.121-1.056.026-.3.039-.631.039-1.014a16.334,16.334,0,0,0-1.245-6.355,17.483,17.483,0,0,0-3.435-5.3,16.146,16.146,0,0,0-5.1-3.616,17.343,17.343,0,0,0-6.311-1.491h-1.363l-.455-.036a22.288,22.288,0,0,1-8.463-1.991l-.035-.015a21.788,21.788,0,0,1-5.694-3.642,24.724,24.724,0,0,1-4.307-5,23.419,23.419,0,0,1-2.788-6.04,22.986,22.986,0,0,1-.977-6.605A8.467,8.467,0,0,1,5130.364,2795.837Z" transform="translate(-5049.666 -2794.483)" fill="#0084c1"/>
    </g>
  </g>
</svg>
